<svg width="18" height="18" viewBox="0 0 18 18" fill="none" xmlns="http://www.w3.org/2000/svg">
<path d="M3.4 3.78V12.3333C3.39986 13.1796 3.73773 13.9943 4.34506 14.6121C4.95239 15.2298 5.78371 15.6045 6.6704 15.66L6.9 15.6667H13.0796C12.9349 16.0566 12.6668 16.3941 12.3123 16.6329C11.9577 16.8717 11.5342 16.9999 11.1 17H6.2C5.08609 17 4.0178 16.5786 3.23015 15.8284C2.4425 15.0783 2 14.0609 2 13V5.66667C1.99977 5.2529 2.1343 4.84925 2.38504 4.51135C2.63578 4.17344 2.99039 3.91792 3.4 3.78ZM13.9 1C14.457 1 14.9911 1.21071 15.3849 1.58579C15.7788 1.96086 16 2.46957 16 3V12.3333C16 12.8638 15.7788 13.3725 15.3849 13.7475C14.9911 14.1226 14.457 14.3333 13.9 14.3333H6.9C6.34305 14.3333 5.8089 14.1226 5.41508 13.7475C5.02125 13.3725 4.8 12.8638 4.8 12.3333V3C4.8 2.46957 5.02125 1.96086 5.41508 1.58579C5.8089 1.21071 6.34305 1 6.9 1H13.9Z" fill="white"/>
</svg>
